<svg xmlns="http://www.w3.org/2000/svg" viewBox="0 0 820 470" font-family="'Microsoft YaHei','PingFang SC',sans-serif">
  <style>
    /* 三态数值轮换（9 秒周期，每态 3 秒） */
    .s1{animation:k1 9s steps(1) infinite}
    .s2{animation:k2 9s steps(1) infinite}
    .s3{animation:k3 9s steps(1) infinite}
    @keyframes k1{0%,32.9%{opacity:1}33%,100%{opacity:0}}
    @keyframes k2{0%,32.9%{opacity:0}33%,65.9%{opacity:1}66%,100%{opacity:0}}
    @keyframes k3{0%,65.9%{opacity:0}66%,100%{opacity:1}}
    /* 四条字幕轮播（10 秒周期，每条 2.5 秒） */
    .c1{animation:cap1 10s steps(1) infinite}
    .c2{animation:cap2 10s steps(1) infinite}
    .c3{animation:cap3 10s steps(1) infinite}
    .c4{animation:cap4 10s steps(1) infinite}
    @keyframes cap1{0%,24.9%{opacity:1}25%,100%{opacity:0}}
    @keyframes cap2{0%,24.9%{opacity:0}25%,49.9%{opacity:1}50%,100%{opacity:0}}
    @keyframes cap3{0%,49.9%{opacity:0}50%,74.9%{opacity:1}75%,100%{opacity:0}}
    @keyframes cap4{0%,74.9%{opacity:0}75%,100%{opacity:1}}
    /* 曲线滚动与报文上翻 */
    .scroll{animation:sc 4s linear infinite}
    @keyframes sc{from{transform:translateX(0)}to{transform:translateX(-140px)}}
    .logroll{animation:lg 6s linear infinite}
    @keyframes lg{from{transform:translateY(0)}to{transform:translateY(-132px)}}
    .blink{animation:bl 2s steps(1) infinite}
    @keyframes bl{0%,74.9%{opacity:1}75%,100%{opacity:.35}}
  </style>

  <!-- 底色与外框 -->
  <rect width="820" height="470" rx="10" fill="#111827"/>

  <!-- 顶栏 -->
  <rect x="0" y="0" width="820" height="42" rx="10" fill="#1F4E79"/>
  <rect x="0" y="21" width="820" height="21" fill="#1F4E79"/>
  <text x="18" y="27" font-size="16" font-weight="bold" fill="#FFFFFF">DL/T645 电能表主站</text>
  <rect x="208" y="10" width="150" height="22" rx="11" fill="#173A5C"/>
  <text x="283" y="25" font-size="11" fill="#9DB8D4" text-anchor="middle">DL/T645-2007 · RS485</text>
  <circle cx="676" cy="21" r="5" fill="#4ADE80" class="blink"/>
  <text x="688" y="26" font-size="12" fill="#E5E7EB">已连接 · 轮询中</text>

  <!-- 电参数卡片行 -->
  <g>
    <rect x="30" y="56" width="130" height="96" rx="6" fill="#1F2937"/>
    <rect x="30" y="56" width="4" height="96" rx="2" fill="#A78BFA"/>
    <text x="44" y="78" font-size="11" fill="#9CA3AF">正向有功总电能</text>
    <text x="44" y="112" font-size="22" fill="#FFFFFF" text-anchor="start" font-family="Consolas,monospace" font-weight="bold" class="s1">13.26</text>
    <text x="44" y="112" font-size="22" fill="#FFFFFF" text-anchor="start" font-family="Consolas,monospace" font-weight="bold" class="s2" opacity="0">13.29</text>
    <text x="44" y="112" font-size="22" fill="#FFFFFF" text-anchor="start" font-family="Consolas,monospace" font-weight="bold" class="s3" opacity="0">13.32</text>
    <text x="44" y="136" font-size="10" fill="#6B7280">kWh · 单调走字</text>

    <rect x="172" y="56" width="130" height="96" rx="6" fill="#1F2937"/>
    <rect x="172" y="56" width="4" height="96" rx="2" fill="#FACC15"/>
    <text x="186" y="78" font-size="11" fill="#9CA3AF">A 相电压</text>
    <text x="186" y="112" font-size="22" fill="#FFFFFF" text-anchor="start" font-family="Consolas,monospace" font-weight="bold" class="s1">222.5</text>
    <text x="186" y="112" font-size="22" fill="#FFFFFF" text-anchor="start" font-family="Consolas,monospace" font-weight="bold" class="s2" opacity="0">221.8</text>
    <text x="186" y="112" font-size="22" fill="#FFFFFF" text-anchor="start" font-family="Consolas,monospace" font-weight="bold" class="s3" opacity="0">222.9</text>
    <text x="186" y="136" font-size="10" fill="#6B7280">V</text>

    <rect x="314" y="56" width="130" height="96" rx="6" fill="#1F2937"/>
    <rect x="314" y="56" width="4" height="96" rx="2" fill="#4ADE80"/>
    <text x="328" y="78" font-size="11" fill="#9CA3AF">B 相电压</text>
    <text x="328" y="112" font-size="22" fill="#FFFFFF" text-anchor="start" font-family="Consolas,monospace" font-weight="bold" class="s1">219.4</text>
    <text x="328" y="112" font-size="22" fill="#FFFFFF" text-anchor="start" font-family="Consolas,monospace" font-weight="bold" class="s2" opacity="0">220.1</text>
    <text x="328" y="112" font-size="22" fill="#FFFFFF" text-anchor="start" font-family="Consolas,monospace" font-weight="bold" class="s3" opacity="0">219.7</text>
    <text x="328" y="136" font-size="10" fill="#6B7280">V</text>

    <rect x="456" y="56" width="130" height="96" rx="6" fill="#1F2937"/>
    <rect x="456" y="56" width="4" height="96" rx="2" fill="#F87171"/>
    <text x="470" y="78" font-size="11" fill="#9CA3AF">C 相电压</text>
    <text x="470" y="112" font-size="22" fill="#FFFFFF" text-anchor="start" font-family="Consolas,monospace" font-weight="bold" class="s1">221.2</text>
    <text x="470" y="112" font-size="22" fill="#FFFFFF" text-anchor="start" font-family="Consolas,monospace" font-weight="bold" class="s2" opacity="0">220.6</text>
    <text x="470" y="112" font-size="22" fill="#FFFFFF" text-anchor="start" font-family="Consolas,monospace" font-weight="bold" class="s3" opacity="0">221.5</text>
    <text x="470" y="136" font-size="10" fill="#6B7280">V</text>
  </g>

  <!-- 三相电压趋势图 -->
  <rect x="30" y="175" width="560" height="180" rx="6" fill="#0B0F19"/>
  <text x="40" y="195" font-size="12" fill="#D1D5DB" font-weight="bold">三相电压趋势</text>
  <text x="580" y="195" font-size="11" fill="#F87171" text-anchor="end">— — 250V 上限警戒线</text>
  <line x1="38" y1="197.5" x2="582" y2="197.5" stroke="#DC2626" stroke-width="1.5" stroke-dasharray="8 6"/>
  <clipPath id="chartclip"><rect x="38" y="203" width="544" height="144"/></clipPath>
  <g clip-path="url(#chartclip)">
    <g transform="translate(38,0)">
      <g class="scroll">
        <polyline points="0,260.5 20,257.1 40,262.8 60,256.0 80,263.9 100,259.4 120,265.0 140,260.5 160,257.1 180,262.8 200,256.0 220,263.9 240,259.4 260,265.0 280,260.5 300,257.1 320,262.8 340,256.0 360,263.9 380,259.4 400,265.0 420,260.5 440,257.1 460,262.8 480,256.0 500,263.9 520,259.4 540,265.0 560,260.5 580,257.1 600,262.8 620,256.0 640,263.9 660,259.4 680,265.0 700,260.5 720,257.1 740,262.8 760,256.0 780,263.9 800,259.4 820,265.0 840,260.5" fill="none" stroke="#FACC15" stroke-width="1.8"/>
        <polyline points="0,268.4 20,265.0 40,262.8 60,267.2 80,270.6 100,263.9 120,266.1 140,268.4 160,265.0 180,262.8 200,267.2 220,270.6 240,263.9 260,266.1 280,268.4 300,265.0 320,262.8 340,267.2 360,270.6 380,263.9 400,266.1 420,268.4 440,265.0 460,262.8 480,267.2 500,270.6 520,263.9 540,266.1 560,268.4 580,265.0 600,262.8 620,267.2 640,270.6 660,263.9 680,266.1 700,268.4 720,265.0 740,262.8 760,267.2 780,270.6 800,263.9 820,266.1 840,268.4" fill="none" stroke="#4ADE80" stroke-width="1.8"/>
        <polyline points="0,260.5 20,266.1 40,262.8 60,259.4 80,261.6 100,265.0 120,258.2 140,260.5 160,266.1 180,262.8 200,259.4 220,261.6 240,265.0 260,258.2 280,260.5 300,266.1 320,262.8 340,259.4 360,261.6 380,265.0 400,258.2 420,260.5 440,266.1 460,262.8 480,259.4 500,261.6 520,265.0 540,258.2 560,260.5 580,266.1 600,262.8 620,259.4 640,261.6 660,265.0 680,258.2 700,260.5 720,266.1 740,262.8 760,259.4 780,261.6 800,265.0 820,258.2 840,260.5" fill="none" stroke="#F87171" stroke-width="1.8"/>
      </g>
    </g>
  </g>

  <!-- 报文监视 -->
  <rect x="602" y="56" width="188" height="299" rx="6" fill="#1F2937"/>
  <text x="614" y="76" font-size="12" fill="#D1D5DB" font-weight="bold">报文监视</text>
  <text x="778" y="76" font-size="9" text-anchor="end"><tspan fill="#F59E0B">■发送 </tspan><tspan fill="#4ADE80">■接收</tspan></text>
  <clipPath id="logclip"><rect x="610" y="86" width="176" height="258"/></clipPath>
  <g clip-path="url(#logclip)">
    <g transform="translate(613,100)">
      <g class="logroll">
      <text x="0" y="0" font-size="10" fill="#F59E0B" font-family="Consolas,monospace">发 68 01 72 00 72 00 00 68 11 04 33 35 34 35 9B 16</text>
      <text x="0" y="22" font-size="10" fill="#4ADE80" font-family="Consolas,monospace">收 68 01 72 00 72 00 00 68 91 08 33 34 35 55 A8 16</text>
      <text x="0" y="44" font-size="10" fill="#F59E0B" font-family="Consolas,monospace">发 68 01 72 00 72 00 00 68 11 04 33 36 34 35 9C 16</text>
      <text x="0" y="66" font-size="10" fill="#4ADE80" font-family="Consolas,monospace">收 68 01 72 00 72 00 00 68 91 06 34 35 4B 55 BC 16</text>
      <text x="0" y="88" font-size="10" fill="#F59E0B" font-family="Consolas,monospace">发 68 01 72 00 72 00 00 68 11 04 3A 33 B3 35 1F 16</text>
      <text x="0" y="110" font-size="10" fill="#4ADE80" font-family="Consolas,monospace">收 68 01 72 00 72 00 00 68 91 07 33 36 35 78 45 16</text>
      <text x="0" y="132" font-size="10" fill="#F59E0B" font-family="Consolas,monospace">发 68 01 72 00 72 00 00 68 11 04 33 35 34 35 9B 16</text>
      <text x="0" y="154" font-size="10" fill="#4ADE80" font-family="Consolas,monospace">收 68 01 72 00 72 00 00 68 91 08 33 34 35 55 A8 16</text>
      <text x="0" y="176" font-size="10" fill="#F59E0B" font-family="Consolas,monospace">发 68 01 72 00 72 00 00 68 11 04 33 36 34 35 9C 16</text>
      <text x="0" y="198" font-size="10" fill="#4ADE80" font-family="Consolas,monospace">收 68 01 72 00 72 00 00 68 91 06 34 35 4B 55 BC 16</text>
      <text x="0" y="220" font-size="10" fill="#F59E0B" font-family="Consolas,monospace">发 68 01 72 00 72 00 00 68 11 04 3A 33 B3 35 1F 16</text>
      <text x="0" y="242" font-size="10" fill="#4ADE80" font-family="Consolas,monospace">收 68 01 72 00 72 00 00 68 91 07 33 36 35 78 45 16</text>
      <text x="0" y="264" font-size="10" fill="#F59E0B" font-family="Consolas,monospace">发 68 01 72 00 72 00 00 68 11 04 33 35 34 35 9B 16</text>
      <text x="0" y="286" font-size="10" fill="#4ADE80" font-family="Consolas,monospace">收 68 01 72 00 72 00 00 68 91 08 33 34 35 55 A8 16</text>
      </g>
    </g>
  </g>

  <!-- 字幕轮播带 -->
  <rect x="30" y="368" width="560" height="40" rx="6" fill="#0B0F19"/>
  <text x="310" y="393" font-size="15" fill="#E5E7EB" text-anchor="middle" font-weight="bold" class="c1">DL/T645-2007 电能表通信调试上位机</text>
  <text x="310" y="393" font-size="15" fill="#E5E7EB" text-anchor="middle" font-weight="bold" class="c2" opacity="0">内置仿真从站 · 零硬件跑通全链路</text>
  <text x="310" y="393" font-size="15" fill="#E5E7EB" text-anchor="middle" font-weight="bold" class="c3" opacity="0">三相电压趋势 · 报文实时监视 · CSV 导出</text>
  <text x="310" y="393" font-size="15" fill="#E5E7EB" text-anchor="middle" font-weight="bold" class="c4" opacity="0">.NET 8 + WPF + MVVM · 139 项单元测试全绿</text>

  <!-- 底部状态栏 -->
  <rect x="0" y="424" width="820" height="46" fill="#0B0F19"/>
  <rect x="0" y="454" width="820" height="16" rx="10" fill="#0B0F19"/>
  <text x="30" y="452" font-size="12" fill="#9CA3AF">轮询已启动</text>
  <g font-family="Consolas,monospace" font-size="12">
    <text x="560" y="452" fill="#9CA3AF">Tx <tspan fill="#E5E7EB" class="s1">429</tspan><tspan fill="#E5E7EB" class="s2" opacity="0">436</tspan><tspan fill="#E5E7EB" class="s3" opacity="0">443</tspan></text>
    <text x="640" y="452" fill="#9CA3AF">Rx <tspan fill="#E5E7EB" class="s1">429</tspan><tspan fill="#E5E7EB" class="s2" opacity="0">436</tspan><tspan fill="#E5E7EB" class="s3" opacity="0">443</tspan></text>
    <text x="716" y="452" fill="#9CA3AF">错误 <tspan fill="#4ADE80">0</tspan></text>
  </g>
</svg>
